<svg xmlns="http://www.w3.org/2000/svg" xmlns:xlink="http://www.w3.org/1999/xlink" width="500" zoomAndPan="magnify" viewBox="0 0 375 374.999991" height="500" preserveAspectRatio="xMidYMid meet" version="1.0"><defs><g/></defs><g fill="#e4e2dd" fill-opacity="1"><g transform="translate(16.124513, 214.499986)"><g><path d="M 41.765625 -31.28125 C 40.972656 -29.8125 39.851562 -28.722656 38.40625 -28.015625 C 36.96875 -27.304688 35.390625 -26.890625 33.671875 -26.765625 C 31.953125 -26.648438 30.21875 -26.679688 28.46875 -26.859375 C 26.726562 -27.046875 25.148438 -27.265625 23.734375 -27.515625 C 23.304688 -27.628906 22.890625 -27.71875 22.484375 -27.78125 C 22.085938 -27.84375 21.675781 -27.90625 21.25 -27.96875 C 21.375 -27.414062 21.492188 -26.863281 21.609375 -26.3125 C 21.734375 -25.757812 21.828125 -25.238281 21.890625 -24.75 C 22.328125 -22.476562 22.742188 -20.207031 23.140625 -17.9375 C 23.535156 -15.664062 23.859375 -13.394531 24.109375 -11.125 C 24.222656 -10.019531 24.25 -8.898438 24.1875 -7.765625 C 24.132812 -6.640625 23.953125 -5.554688 23.640625 -4.515625 C 23.210938 -2.972656 22.296875 -1.5625 20.890625 -0.28125 C 20.390625 0.15625 19.722656 0.507812 18.890625 0.78125 C 18.066406 1.0625 17.382812 0.863281 16.84375 0.1875 C 16.34375 -0.488281 16.046875 -1.238281 15.953125 -2.0625 C 15.867188 -2.894531 15.765625 -3.710938 15.640625 -4.515625 C 15.578125 -5.066406 15.5 -5.628906 15.40625 -6.203125 C 15.3125 -6.785156 15.238281 -7.382812 15.1875 -8 C 14.75 -9.476562 14.378906 -11.046875 14.078125 -12.703125 C 14.140625 -12.203125 14.203125 -11.722656 14.265625 -11.265625 C 14.328125 -10.804688 14.382812 -10.332031 14.4375 -9.84375 C 14.5625 -9.039062 14.671875 -8.238281 14.765625 -7.4375 C 14.859375 -6.644531 14.96875 -5.851562 15.09375 -5.0625 C 15.15625 -4.445312 15.226562 -3.816406 15.3125 -3.171875 C 15.40625 -2.523438 15.363281 -1.925781 15.1875 -1.375 C 15.1875 -1.3125 15.15625 -1.3125 15.09375 -1.375 C 14.71875 -1.925781 14.5 -2.585938 14.4375 -3.359375 C 14.382812 -4.128906 14.296875 -4.816406 14.171875 -5.421875 L 13.34375 -10.21875 C 13.09375 -11.8125 12.84375 -13.390625 12.59375 -14.953125 C 12.351562 -16.515625 12.113281 -18.09375 11.875 -19.6875 C 11.5625 -21.59375 11.265625 -23.492188 10.984375 -25.390625 C 10.710938 -27.296875 10.425781 -29.195312 10.125 -31.09375 C 7.175781 -32.257812 4.351562 -33.546875 1.65625 -34.953125 C 1.59375 -35.015625 1.59375 -35.078125 1.65625 -35.140625 C 1.71875 -35.203125 1.78125 -35.203125 1.84375 -35.140625 C 3.1875 -34.523438 4.546875 -33.925781 5.921875 -33.34375 C 7.304688 -32.757812 8.675781 -32.222656 10.03125 -31.734375 C 9.96875 -32.046875 9.90625 -32.320312 9.84375 -32.5625 C 9.78125 -32.8125 9.71875 -33.054688 9.65625 -33.296875 C 8.613281 -33.734375 7.585938 -34.179688 6.578125 -34.640625 C 5.566406 -35.097656 4.539062 -35.539062 3.5 -35.96875 C 2.519531 -36.457031 1.90625 -37.285156 1.65625 -38.453125 C 1.40625 -39.617188 1.53125 -40.628906 2.03125 -41.484375 C 2.457031 -42.160156 3.128906 -42.710938 4.046875 -43.140625 C 4.960938 -43.578125 5.820312 -43.640625 6.625 -43.328125 L 7.171875 -43.0625 C 6.617188 -45.082031 6.035156 -47.101562 5.421875 -49.125 C 4.816406 -51.144531 4.175781 -53.140625 3.5 -55.109375 C 3.25 -55.898438 3.335938 -56.617188 3.765625 -57.265625 C 4.203125 -57.910156 4.753906 -58.359375 5.421875 -58.609375 C 5.367188 -59.035156 5.445312 -59.398438 5.65625 -59.703125 C 5.875 -60.015625 6.101562 -60.289062 6.34375 -60.53125 C 7.875 -61.570312 9.546875 -61.925781 11.359375 -61.59375 C 13.171875 -61.257812 14.8125 -60.722656 16.28125 -59.984375 C 17.8125 -59.179688 19.296875 -58.335938 20.734375 -57.453125 C 22.179688 -56.566406 23.613281 -55.660156 25.03125 -54.734375 C 27.90625 -52.835938 30.707031 -50.800781 33.4375 -48.625 C 36.164062 -46.445312 38.847656 -44.191406 41.484375 -41.859375 C 42.222656 -41.242188 42.53125 -40.539062 42.40625 -39.75 C 42.957031 -38.820312 43.328125 -37.898438 43.515625 -36.984375 C 43.703125 -35.691406 43.625 -34.585938 43.28125 -33.671875 C 42.945312 -32.753906 42.441406 -31.957031 41.765625 -31.28125 Z M 30.734375 -41.125 C 29.378906 -41.914062 28.039062 -42.695312 26.71875 -43.46875 C 25.40625 -44.238281 24.070312 -44.988281 22.71875 -45.71875 C 21.738281 -46.207031 20.726562 -46.710938 19.6875 -47.234375 C 18.644531 -47.765625 17.601562 -48.242188 16.5625 -48.671875 C 17.050781 -46.953125 17.507812 -45.203125 17.9375 -43.421875 C 18.363281 -41.640625 18.765625 -39.863281 19.140625 -38.09375 C 21.160156 -37.414062 23.125 -36.863281 25.03125 -36.4375 C 26.5625 -36.125 28.109375 -35.890625 29.671875 -35.734375 C 31.234375 -35.585938 32.78125 -35.578125 34.3125 -35.703125 C 34.625 -35.703125 34.945312 -35.710938 35.28125 -35.734375 C 35.613281 -35.765625 35.90625 -35.8125 36.15625 -35.875 L 36.890625 -36.0625 C 36.765625 -36.3125 36.644531 -36.492188 36.53125 -36.609375 C 35.914062 -37.597656 35.054688 -38.441406 33.953125 -39.140625 C 32.847656 -39.847656 31.773438 -40.507812 30.734375 -41.125 Z M 25.9375 -28.796875 C 25.144531 -28.921875 24.316406 -29.054688 23.453125 -29.203125 C 22.597656 -29.359375 21.742188 -29.53125 20.890625 -29.71875 C 20.941406 -29.59375 20.96875 -29.46875 20.96875 -29.34375 C 20.96875 -29.21875 21 -29.097656 21.0625 -28.984375 C 21.25 -28.921875 21.414062 -28.875 21.5625 -28.84375 C 21.71875 -28.8125 21.890625 -28.796875 22.078125 -28.796875 C 23.859375 -28.546875 25.679688 -28.3125 27.546875 -28.09375 C 29.421875 -27.882812 31.25 -27.875 33.03125 -28.0625 L 36.53125 -28.609375 C 36.53125 -28.671875 36.207031 -28.671875 35.5625 -28.609375 C 34.914062 -28.546875 34.59375 -28.546875 34.59375 -28.609375 C 33.0625 -28.429688 31.523438 -28.367188 29.984375 -28.421875 C 28.453125 -28.484375 27.101562 -28.609375 25.9375 -28.796875 Z M 21.34375 -12.609375 C 21.46875 -11.066406 21.515625 -9.5 21.484375 -7.90625 C 21.453125 -6.3125 21.066406 -4.8125 20.328125 -3.40625 L 20.515625 -3.125 C 20.878906 -3.3125 21.1875 -3.523438 21.4375 -3.765625 C 22.113281 -5.179688 22.40625 -6.65625 22.3125 -8.1875 C 22.21875 -9.71875 22.019531 -11.25 21.71875 -12.78125 L 21.15625 -15.640625 C 21.09375 -15.578125 21.09375 -15.359375 21.15625 -14.984375 C 21.21875 -14.617188 21.21875 -14.4375 21.15625 -14.4375 Z M 21.34375 -12.609375 "/></g></g></g><g fill="#e4e2dd" fill-opacity="1"><g transform="translate(56.968828, 214.499986)"><g><path d="M 44.34375 -17.75 C 43.664062 -15.488281 42.773438 -13.28125 41.671875 -11.125 C 40.566406 -8.976562 39.128906 -7.109375 37.359375 -5.515625 C 37.171875 -5.398438 36.953125 -5.21875 36.703125 -4.96875 C 36.273438 -4.539062 35.691406 -4.003906 34.953125 -3.359375 C 34.222656 -2.710938 33.457031 -2.207031 32.65625 -1.84375 C 30.570312 -0.488281 28.300781 0.109375 25.84375 -0.046875 C 23.394531 -0.203125 21.050781 -0.875 18.8125 -2.0625 C 16.570312 -3.257812 14.6875 -4.75 13.15625 -6.53125 C 11.625 -8.3125 10.335938 -10.304688 9.296875 -12.515625 C 8.742188 -12.453125 8.191406 -12.554688 7.640625 -12.828125 C 7.085938 -13.109375 6.65625 -13.585938 6.34375 -14.265625 C 4.070312 -19.960938 2.796875 -25.921875 2.515625 -32.140625 C 2.242188 -38.367188 2.785156 -44.460938 4.140625 -50.421875 C 4.503906 -51.953125 5.066406 -53.5 5.828125 -55.0625 C 6.597656 -56.625 7.613281 -57.878906 8.875 -58.828125 C 10.132812 -59.785156 11.6875 -60.109375 13.53125 -59.796875 C 14.632812 -59.671875 15.628906 -59.253906 16.515625 -58.546875 C 17.398438 -57.847656 18.054688 -56.976562 18.484375 -55.9375 C 18.984375 -54.582031 19.03125 -53.09375 18.625 -51.46875 C 18.226562 -49.84375 17.96875 -48.328125 17.84375 -46.921875 C 17.71875 -45.203125 17.65625 -43.46875 17.65625 -41.71875 C 17.65625 -39.96875 17.6875 -38.238281 17.75 -36.53125 C 18 -32.96875 18.519531 -29.46875 19.3125 -26.03125 C 20.113281 -22.601562 21.128906 -19.234375 22.359375 -15.921875 C 23.035156 -15.429688 23.722656 -15.015625 24.421875 -14.671875 C 25.128906 -14.335938 25.882812 -14.140625 26.6875 -14.078125 C 28.457031 -14.441406 29.988281 -15.175781 31.28125 -16.28125 C 32.019531 -17.320312 32.507812 -18.59375 32.75 -20.09375 C 33 -21.601562 33.148438 -23.09375 33.203125 -24.5625 C 33.265625 -26.03125 33.328125 -27.289062 33.390625 -28.34375 C 33.703125 -32.445312 33.859375 -36.550781 33.859375 -40.65625 C 33.859375 -44.769531 33.828125 -48.878906 33.765625 -52.984375 C 33.703125 -54.398438 34.3125 -55.472656 35.59375 -56.203125 C 36.882812 -56.941406 38.113281 -56.972656 39.28125 -56.296875 L 39.28125 -57.21875 C 39.28125 -57.707031 39.460938 -58.148438 39.828125 -58.546875 C 40.203125 -58.953125 40.632812 -59.125 41.125 -59.0625 C 42.53125 -58.9375 43.554688 -58.414062 44.203125 -57.5 C 44.847656 -56.582031 45.273438 -55.523438 45.484375 -54.328125 C 45.703125 -53.128906 45.84375 -51.945312 45.90625 -50.78125 C 46.03125 -49.675781 46.148438 -48.570312 46.265625 -47.46875 C 46.390625 -46.363281 46.453125 -45.257812 46.453125 -44.15625 L 46.453125 -40.484375 C 46.640625 -36.679688 46.59375 -32.863281 46.3125 -29.03125 C 46.039062 -25.195312 45.382812 -21.4375 44.34375 -17.75 Z M 17.484375 -50.140625 C 17.234375 -50.015625 17.046875 -50.078125 16.921875 -50.328125 C 16.867188 -49.898438 16.78125 -49.484375 16.65625 -49.078125 C 16.53125 -48.679688 16.375 -48.300781 16.1875 -47.9375 C 15.820312 -44.800781 15.65625 -41.671875 15.6875 -38.546875 C 15.71875 -35.421875 16.039062 -32.320312 16.65625 -29.25 C 16.78125 -28.644531 16.898438 -28.050781 17.015625 -27.46875 C 17.140625 -26.882812 17.265625 -26.316406 17.390625 -25.765625 C 17.515625 -25.765625 17.601562 -25.734375 17.65625 -25.671875 C 16.1875 -33.890625 16.128906 -42.046875 17.484375 -50.140625 Z M 17.484375 -50.140625 "/></g></g></g><g fill="#e4e2dd" fill-opacity="1"><g transform="translate(101.492831, 214.499986)"><g><path d="M 55.390625 -9.390625 C 55.503906 -8.097656 55.484375 -6.804688 55.328125 -5.515625 C 55.179688 -4.234375 54.769531 -3.007812 54.09375 -1.84375 C 53.414062 -0.675781 52.359375 0.164062 50.921875 0.6875 C 49.484375 1.207031 48.179688 0.882812 47.015625 -0.28125 C 45.972656 -0.519531 45.082031 -1.050781 44.34375 -1.875 C 43.601562 -2.707031 43.234375 -3.675781 43.234375 -4.78125 C 43.054688 -12.632812 41.984375 -20.457031 40.015625 -28.25 C 39.585938 -30.207031 39.160156 -32.148438 38.734375 -34.078125 C 38.304688 -36.015625 37.875 -37.9375 37.4375 -39.84375 C 36.332031 -36.644531 35.257812 -33.222656 34.21875 -29.578125 C 33.175781 -25.929688 32.316406 -22.816406 31.640625 -20.234375 C 31.035156 -17.722656 30.441406 -15.148438 29.859375 -12.515625 C 29.273438 -9.878906 28.796875 -7.578125 28.421875 -5.609375 C 28.367188 -5.429688 28.296875 -5.351562 28.203125 -5.375 C 28.109375 -5.40625 28.0625 -5.453125 28.0625 -5.515625 C 28 -5.085938 27.90625 -4.660156 27.78125 -4.234375 C 27.65625 -3.804688 27.535156 -3.347656 27.421875 -2.859375 C 27.171875 -2.242188 26.875 -1.6875 26.53125 -1.1875 C 26.195312 -0.695312 25.664062 -0.363281 24.9375 -0.1875 C 24.382812 -0.0625 23.984375 -0.09375 23.734375 -0.28125 C 23.179688 -0.28125 22.753906 -0.398438 22.453125 -0.640625 C 22.078125 -0.398438 21.800781 -0.492188 21.625 -0.921875 C 21.1875 -1.597656 20.859375 -2.269531 20.640625 -2.9375 C 20.429688 -3.613281 20.238281 -4.320312 20.0625 -5.0625 L 16.09375 -19.140625 C 15.664062 -20.671875 15.253906 -22.203125 14.859375 -23.734375 C 14.460938 -25.265625 14.078125 -26.800781 13.703125 -28.34375 C 13.585938 -28.707031 13.46875 -29.070312 13.34375 -29.4375 C 13.21875 -29.800781 13.09375 -30.203125 12.96875 -30.640625 C 13.15625 -26.773438 13.320312 -22.847656 13.46875 -18.859375 C 13.625 -14.867188 13.734375 -10.941406 13.796875 -7.078125 C 13.859375 -5.734375 13.8125 -4.335938 13.65625 -2.890625 C 13.507812 -1.453125 12.695312 -0.394531 11.21875 0.28125 C 10.550781 0.582031 10.03125 0.519531 9.65625 0.09375 C 9.53125 -0.03125 9.441406 -0.15625 9.390625 -0.28125 C 8.097656 0.15625 7.019531 -0.0546875 6.15625 -0.921875 C 5.363281 -1.773438 4.84375 -2.816406 4.59375 -4.046875 C 4.351562 -5.273438 4.171875 -6.441406 4.046875 -7.546875 C 3.679688 -10.242188 3.40625 -12.894531 3.21875 -15.5 C 3.03125 -18.101562 2.910156 -20.726562 2.859375 -23.375 C 2.671875 -28.832031 2.578125 -34.289062 2.578125 -39.75 C 2.515625 -42.382812 2.46875 -45.050781 2.4375 -47.75 C 2.40625 -50.445312 2.632812 -53.113281 3.125 -55.75 C 3.1875 -56 3.367188 -56.125 3.671875 -56.125 C 3.984375 -56.125 4.171875 -56 4.234375 -55.75 C 4.535156 -53.90625 4.71875 -51.957031 4.78125 -49.90625 C 4.84375 -47.851562 4.90625 -45.847656 4.96875 -43.890625 C 5.09375 -43.890625 5.1875 -43.550781 5.25 -42.875 C 5.3125 -42.195312 5.367188 -41.859375 5.421875 -41.859375 L 5.421875 -43.96875 C 5.421875 -45.070312 5.40625 -46.160156 5.375 -47.234375 C 5.351562 -48.316406 5.34375 -49.410156 5.34375 -50.515625 C 5.28125 -51.429688 5.265625 -52.378906 5.296875 -53.359375 C 5.328125 -54.335938 5.554688 -55.257812 5.984375 -56.125 C 5.984375 -57.164062 6.503906 -57.992188 7.546875 -58.609375 C 9.015625 -59.523438 10.546875 -59.738281 12.140625 -59.25 C 13.984375 -58.882812 15.242188 -57.8125 15.921875 -56.03125 C 16.472656 -55.351562 16.804688 -54.523438 16.921875 -53.546875 C 17.046875 -52.441406 17.195312 -51.320312 17.375 -50.1875 C 17.5625 -49.050781 17.75 -47.898438 17.9375 -46.734375 C 18.738281 -42.015625 19.628906 -37.078125 20.609375 -31.921875 C 21.585938 -26.773438 22.597656 -21.867188 23.640625 -17.203125 C 24.253906 -19.773438 24.835938 -22.347656 25.390625 -24.921875 C 25.941406 -27.503906 26.523438 -30.082031 27.140625 -32.65625 C 27.992188 -36.644531 28.878906 -40.617188 29.796875 -44.578125 C 30.722656 -48.535156 31.460938 -52.503906 32.015625 -56.484375 C 32.140625 -56.972656 32.414062 -57.414062 32.84375 -57.8125 C 33.269531 -58.21875 33.726562 -58.453125 34.21875 -58.515625 C 35.757812 -58.941406 37.109375 -58.816406 38.265625 -58.140625 C 38.941406 -58.628906 39.707031 -58.875 40.5625 -58.875 C 41.425781 -58.875 42.132812 -58.566406 42.6875 -57.953125 C 44.09375 -56.546875 45.222656 -54.953125 46.078125 -53.171875 C 46.941406 -51.398438 47.59375 -49.5625 48.03125 -47.65625 C 48.519531 -45.570312 48.960938 -43.5 49.359375 -41.4375 C 49.753906 -39.382812 50.140625 -37.316406 50.515625 -35.234375 C 50.628906 -34.441406 50.765625 -33.644531 50.921875 -32.84375 C 51.078125 -32.039062 51.1875 -31.242188 51.25 -30.453125 C 51.425781 -29.773438 51.59375 -29.097656 51.75 -28.421875 C 51.90625 -27.753906 52.039062 -27.082031 52.15625 -26.40625 C 52.46875 -24.875 52.757812 -23.367188 53.03125 -21.890625 C 53.3125 -20.421875 53.601562 -18.921875 53.90625 -17.390625 C 54.21875 -16.035156 54.507812 -14.695312 54.78125 -13.375 C 55.0625 -12.0625 55.265625 -10.734375 55.390625 -9.390625 Z M 17.203125 -34.40625 C 17.390625 -33.976562 17.539062 -33.59375 17.65625 -33.25 C 17.78125 -32.914062 17.96875 -32.597656 18.21875 -32.296875 C 17.789062 -34.617188 17.300781 -37.296875 16.75 -40.328125 C 16.195312 -43.367188 15.703125 -46.054688 15.265625 -48.390625 C 15.210938 -49.066406 15.125 -49.753906 15 -50.453125 C 14.875 -51.160156 14.71875 -51.882812 14.53125 -52.625 C 14.164062 -52.375 13.738281 -52.191406 13.25 -52.078125 C 13.25 -51.953125 13.21875 -51.828125 13.15625 -51.703125 C 13.832031 -48.878906 14.488281 -46.085938 15.125 -43.328125 C 15.769531 -40.566406 16.398438 -37.75 17.015625 -34.875 C 17.140625 -34.75 17.203125 -34.59375 17.203125 -34.40625 Z M 31.1875 -20.421875 C 32.039062 -23.921875 32.957031 -27.414062 33.9375 -30.90625 C 34.925781 -34.40625 36.003906 -37.875 37.171875 -41.3125 C 37.109375 -41.613281 37.046875 -41.914062 36.984375 -42.21875 C 36.921875 -42.53125 36.828125 -42.835938 36.703125 -43.140625 C 35.722656 -40.140625 34.800781 -37.085938 33.9375 -33.984375 C 33.082031 -30.890625 32.289062 -27.78125 31.5625 -24.65625 C 31.5 -23.976562 31.390625 -23.285156 31.234375 -22.578125 C 31.078125 -21.878906 30.9375 -21.191406 30.8125 -20.515625 C 30.875 -20.453125 30.96875 -20.421875 31.09375 -20.421875 Z M 31.1875 -20.421875 "/></g></g></g><g fill="#e4e2dd" fill-opacity="1"><g transform="translate(153.37622, 214.499986)"><g><path d="M 41.765625 -31.28125 C 40.972656 -29.8125 39.851562 -28.722656 38.40625 -28.015625 C 36.96875 -27.304688 35.390625 -26.890625 33.671875 -26.765625 C 31.953125 -26.648438 30.21875 -26.679688 28.46875 -26.859375 C 26.726562 -27.046875 25.148438 -27.265625 23.734375 -27.515625 C 23.304688 -27.628906 22.890625 -27.71875 22.484375 -27.78125 C 22.085938 -27.84375 21.675781 -27.90625 21.25 -27.96875 C 21.375 -27.414062 21.492188 -26.863281 21.609375 -26.3125 C 21.734375 -25.757812 21.828125 -25.238281 21.890625 -24.75 C 22.328125 -22.476562 22.742188 -20.207031 23.140625 -17.9375 C 23.535156 -15.664062 23.859375 -13.394531 24.109375 -11.125 C 24.222656 -10.019531 24.25 -8.898438 24.1875 -7.765625 C 24.132812 -6.640625 23.953125 -5.554688 23.640625 -4.515625 C 23.210938 -2.972656 22.296875 -1.5625 20.890625 -0.28125 C 20.390625 0.15625 19.722656 0.507812 18.890625 0.78125 C 18.066406 1.0625 17.382812 0.863281 16.84375 0.1875 C 16.34375 -0.488281 16.046875 -1.238281 15.953125 -2.0625 C 15.867188 -2.894531 15.765625 -3.710938 15.640625 -4.515625 C 15.578125 -5.066406 15.5 -5.628906 15.40625 -6.203125 C 15.3125 -6.785156 15.238281 -7.382812 15.1875 -8 C 14.75 -9.476562 14.378906 -11.046875 14.078125 -12.703125 C 14.140625 -12.203125 14.203125 -11.722656 14.265625 -11.265625 C 14.328125 -10.804688 14.382812 -10.332031 14.4375 -9.84375 C 14.5625 -9.039062 14.671875 -8.238281 14.765625 -7.4375 C 14.859375 -6.644531 14.96875 -5.851562 15.09375 -5.0625 C 15.15625 -4.445312 15.226562 -3.816406 15.3125 -3.171875 C 15.40625 -2.523438 15.363281 -1.925781 15.1875 -1.375 C 15.1875 -1.3125 15.15625 -1.3125 15.09375 -1.375 C 14.71875 -1.925781 14.5 -2.585938 14.4375 -3.359375 C 14.382812 -4.128906 14.296875 -4.816406 14.171875 -5.421875 L 13.34375 -10.21875 C 13.09375 -11.8125 12.84375 -13.390625 12.59375 -14.953125 C 12.351562 -16.515625 12.113281 -18.09375 11.875 -19.6875 C 11.5625 -21.59375 11.265625 -23.492188 10.984375 -25.390625 C 10.710938 -27.296875 10.425781 -29.195312 10.125 -31.09375 C 7.175781 -32.257812 4.351562 -33.546875 1.65625 -34.953125 C 1.59375 -35.015625 1.59375 -35.078125 1.65625 -35.140625 C 1.71875 -35.203125 1.78125 -35.203125 1.84375 -35.140625 C 3.1875 -34.523438 4.546875 -33.925781 5.921875 -33.34375 C 7.304688 -32.757812 8.675781 -32.222656 10.03125 -31.734375 C 9.96875 -32.046875 9.90625 -32.320312 9.84375 -32.5625 C 9.78125 -32.8125 9.71875 -33.054688 9.65625 -33.296875 C 8.613281 -33.734375 7.585938 -34.179688 6.578125 -34.640625 C 5.566406 -35.097656 4.539062 -35.539062 3.5 -35.96875 C 2.519531 -36.457031 1.90625 -37.285156 1.65625 -38.453125 C 1.40625 -39.617188 1.53125 -40.628906 2.03125 -41.484375 C 2.457031 -42.160156 3.128906 -42.710938 4.046875 -43.140625 C 4.960938 -43.578125 5.820312 -43.640625 6.625 -43.328125 L 7.171875 -43.0625 C 6.617188 -45.082031 6.035156 -47.101562 5.421875 -49.125 C 4.816406 -51.144531 4.175781 -53.140625 3.5 -55.109375 C 3.25 -55.898438 3.335938 -56.617188 3.765625 -57.265625 C 4.203125 -57.910156 4.753906 -58.359375 5.421875 -58.609375 C 5.367188 -59.035156 5.445312 -59.398438 5.65625 -59.703125 C 5.875 -60.015625 6.101562 -60.289062 6.34375 -60.53125 C 7.875 -61.570312 9.546875 -61.925781 11.359375 -61.59375 C 13.171875 -61.257812 14.8125 -60.722656 16.28125 -59.984375 C 17.8125 -59.179688 19.296875 -58.335938 20.734375 -57.453125 C 22.179688 -56.566406 23.613281 -55.660156 25.03125 -54.734375 C 27.90625 -52.835938 30.707031 -50.800781 33.4375 -48.625 C 36.164062 -46.445312 38.847656 -44.191406 41.484375 -41.859375 C 42.222656 -41.242188 42.53125 -40.539062 42.40625 -39.75 C 42.957031 -38.820312 43.328125 -37.898438 43.515625 -36.984375 C 43.703125 -35.691406 43.625 -34.585938 43.28125 -33.671875 C 42.945312 -32.753906 42.441406 -31.957031 41.765625 -31.28125 Z M 30.734375 -41.125 C 29.378906 -41.914062 28.039062 -42.695312 26.71875 -43.46875 C 25.40625 -44.238281 24.070312 -44.988281 22.71875 -45.71875 C 21.738281 -46.207031 20.726562 -46.710938 19.6875 -47.234375 C 18.644531 -47.765625 17.601562 -48.242188 16.5625 -48.671875 C 17.050781 -46.953125 17.507812 -45.203125 17.9375 -43.421875 C 18.363281 -41.640625 18.765625 -39.863281 19.140625 -38.09375 C 21.160156 -37.414062 23.125 -36.863281 25.03125 -36.4375 C 26.5625 -36.125 28.109375 -35.890625 29.671875 -35.734375 C 31.234375 -35.585938 32.78125 -35.578125 34.3125 -35.703125 C 34.625 -35.703125 34.945312 -35.710938 35.28125 -35.734375 C 35.613281 -35.765625 35.90625 -35.8125 36.15625 -35.875 L 36.890625 -36.0625 C 36.765625 -36.3125 36.644531 -36.492188 36.53125 -36.609375 C 35.914062 -37.597656 35.054688 -38.441406 33.953125 -39.140625 C 32.847656 -39.847656 31.773438 -40.507812 30.734375 -41.125 Z M 25.9375 -28.796875 C 25.144531 -28.921875 24.316406 -29.054688 23.453125 -29.203125 C 22.597656 -29.359375 21.742188 -29.53125 20.890625 -29.71875 C 20.941406 -29.59375 20.96875 -29.46875 20.96875 -29.34375 C 20.96875 -29.21875 21 -29.097656 21.0625 -28.984375 C 21.25 -28.921875 21.414062 -28.875 21.5625 -28.84375 C 21.71875 -28.8125 21.890625 -28.796875 22.078125 -28.796875 C 23.859375 -28.546875 25.679688 -28.3125 27.546875 -28.09375 C 29.421875 -27.882812 31.25 -27.875 33.03125 -28.0625 L 36.53125 -28.609375 C 36.53125 -28.671875 36.207031 -28.671875 35.5625 -28.609375 C 34.914062 -28.546875 34.59375 -28.546875 34.59375 -28.609375 C 33.0625 -28.429688 31.523438 -28.367188 29.984375 -28.421875 C 28.453125 -28.484375 27.101562 -28.609375 25.9375 -28.796875 Z M 21.34375 -12.609375 C 21.46875 -11.066406 21.515625 -9.5 21.484375 -7.90625 C 21.453125 -6.3125 21.066406 -4.8125 20.328125 -3.40625 L 20.515625 -3.125 C 20.878906 -3.3125 21.1875 -3.523438 21.4375 -3.765625 C 22.113281 -5.179688 22.40625 -6.65625 22.3125 -8.1875 C 22.21875 -9.71875 22.019531 -11.25 21.71875 -12.78125 L 21.15625 -15.640625 C 21.09375 -15.578125 21.09375 -15.359375 21.15625 -14.984375 C 21.21875 -14.617188 21.21875 -14.4375 21.15625 -14.4375 Z M 21.34375 -12.609375 "/></g></g></g><g fill="#e4e2dd" fill-opacity="1"><g transform="translate(194.220535, 214.499986)"><g><path d="M 41.765625 -31.28125 C 40.972656 -29.8125 39.851562 -28.722656 38.40625 -28.015625 C 36.96875 -27.304688 35.390625 -26.890625 33.671875 -26.765625 C 31.953125 -26.648438 30.21875 -26.679688 28.46875 -26.859375 C 26.726562 -27.046875 25.148438 -27.265625 23.734375 -27.515625 C 23.304688 -27.628906 22.890625 -27.71875 22.484375 -27.78125 C 22.085938 -27.84375 21.675781 -27.90625 21.25 -27.96875 C 21.375 -27.414062 21.492188 -26.863281 21.609375 -26.3125 C 21.734375 -25.757812 21.828125 -25.238281 21.890625 -24.75 C 22.328125 -22.476562 22.742188 -20.207031 23.140625 -17.9375 C 23.535156 -15.664062 23.859375 -13.394531 24.109375 -11.125 C 24.222656 -10.019531 24.25 -8.898438 24.1875 -7.765625 C 24.132812 -6.640625 23.953125 -5.554688 23.640625 -4.515625 C 23.210938 -2.972656 22.296875 -1.5625 20.890625 -0.28125 C 20.390625 0.15625 19.722656 0.507812 18.890625 0.78125 C 18.066406 1.0625 17.382812 0.863281 16.84375 0.1875 C 16.34375 -0.488281 16.046875 -1.238281 15.953125 -2.0625 C 15.867188 -2.894531 15.765625 -3.710938 15.640625 -4.515625 C 15.578125 -5.066406 15.5 -5.628906 15.40625 -6.203125 C 15.3125 -6.785156 15.238281 -7.382812 15.1875 -8 C 14.75 -9.476562 14.378906 -11.046875 14.078125 -12.703125 C 14.140625 -12.203125 14.203125 -11.722656 14.265625 -11.265625 C 14.328125 -10.804688 14.382812 -10.332031 14.4375 -9.84375 C 14.5625 -9.039062 14.671875 -8.238281 14.765625 -7.4375 C 14.859375 -6.644531 14.96875 -5.851562 15.09375 -5.0625 C 15.15625 -4.445312 15.226562 -3.816406 15.3125 -3.171875 C 15.40625 -2.523438 15.363281 -1.925781 15.1875 -1.375 C 15.1875 -1.3125 15.15625 -1.3125 15.09375 -1.375 C 14.71875 -1.925781 14.5 -2.585938 14.4375 -3.359375 C 14.382812 -4.128906 14.296875 -4.816406 14.171875 -5.421875 L 13.34375 -10.21875 C 13.09375 -11.8125 12.84375 -13.390625 12.59375 -14.953125 C 12.351562 -16.515625 12.113281 -18.09375 11.875 -19.6875 C 11.5625 -21.59375 11.265625 -23.492188 10.984375 -25.390625 C 10.710938 -27.296875 10.425781 -29.195312 10.125 -31.09375 C 7.175781 -32.257812 4.351562 -33.546875 1.65625 -34.953125 C 1.59375 -35.015625 1.59375 -35.078125 1.65625 -35.140625 C 1.71875 -35.203125 1.78125 -35.203125 1.84375 -35.140625 C 3.1875 -34.523438 4.546875 -33.925781 5.921875 -33.34375 C 7.304688 -32.757812 8.675781 -32.222656 10.03125 -31.734375 C 9.96875 -32.046875 9.90625 -32.320312 9.84375 -32.5625 C 9.78125 -32.8125 9.71875 -33.054688 9.65625 -33.296875 C 8.613281 -33.734375 7.585938 -34.179688 6.578125 -34.640625 C 5.566406 -35.097656 4.539062 -35.539062 3.5 -35.96875 C 2.519531 -36.457031 1.90625 -37.285156 1.65625 -38.453125 C 1.40625 -39.617188 1.53125 -40.628906 2.03125 -41.484375 C 2.457031 -42.160156 3.128906 -42.710938 4.046875 -43.140625 C 4.960938 -43.578125 5.820312 -43.640625 6.625 -43.328125 L 7.171875 -43.0625 C 6.617188 -45.082031 6.035156 -47.101562 5.421875 -49.125 C 4.816406 -51.144531 4.175781 -53.140625 3.5 -55.109375 C 3.25 -55.898438 3.335938 -56.617188 3.765625 -57.265625 C 4.203125 -57.910156 4.753906 -58.359375 5.421875 -58.609375 C 5.367188 -59.035156 5.445312 -59.398438 5.65625 -59.703125 C 5.875 -60.015625 6.101562 -60.289062 6.34375 -60.53125 C 7.875 -61.570312 9.546875 -61.925781 11.359375 -61.59375 C 13.171875 -61.257812 14.8125 -60.722656 16.28125 -59.984375 C 17.8125 -59.179688 19.296875 -58.335938 20.734375 -57.453125 C 22.179688 -56.566406 23.613281 -55.660156 25.03125 -54.734375 C 27.90625 -52.835938 30.707031 -50.800781 33.4375 -48.625 C 36.164062 -46.445312 38.847656 -44.191406 41.484375 -41.859375 C 42.222656 -41.242188 42.53125 -40.539062 42.40625 -39.75 C 42.957031 -38.820312 43.328125 -37.898438 43.515625 -36.984375 C 43.703125 -35.691406 43.625 -34.585938 43.28125 -33.671875 C 42.945312 -32.753906 42.441406 -31.957031 41.765625 -31.28125 Z M 30.734375 -41.125 C 29.378906 -41.914062 28.039062 -42.695312 26.71875 -43.46875 C 25.40625 -44.238281 24.070312 -44.988281 22.71875 -45.71875 C 21.738281 -46.207031 20.726562 -46.710938 19.6875 -47.234375 C 18.644531 -47.765625 17.601562 -48.242188 16.5625 -48.671875 C 17.050781 -46.953125 17.507812 -45.203125 17.9375 -43.421875 C 18.363281 -41.640625 18.765625 -39.863281 19.140625 -38.09375 C 21.160156 -37.414062 23.125 -36.863281 25.03125 -36.4375 C 26.5625 -36.125 28.109375 -35.890625 29.671875 -35.734375 C 31.234375 -35.585938 32.78125 -35.578125 34.3125 -35.703125 C 34.625 -35.703125 34.945312 -35.710938 35.28125 -35.734375 C 35.613281 -35.765625 35.90625 -35.8125 36.15625 -35.875 L 36.890625 -36.0625 C 36.765625 -36.3125 36.644531 -36.492188 36.53125 -36.609375 C 35.914062 -37.597656 35.054688 -38.441406 33.953125 -39.140625 C 32.847656 -39.847656 31.773438 -40.507812 30.734375 -41.125 Z M 25.9375 -28.796875 C 25.144531 -28.921875 24.316406 -29.054688 23.453125 -29.203125 C 22.597656 -29.359375 21.742188 -29.53125 20.890625 -29.71875 C 20.941406 -29.59375 20.96875 -29.46875 20.96875 -29.34375 C 20.96875 -29.21875 21 -29.097656 21.0625 -28.984375 C 21.25 -28.921875 21.414062 -28.875 21.5625 -28.84375 C 21.71875 -28.8125 21.890625 -28.796875 22.078125 -28.796875 C 23.859375 -28.546875 25.679688 -28.3125 27.546875 -28.09375 C 29.421875 -27.882812 31.25 -27.875 33.03125 -28.0625 L 36.53125 -28.609375 C 36.53125 -28.671875 36.207031 -28.671875 35.5625 -28.609375 C 34.914062 -28.546875 34.59375 -28.546875 34.59375 -28.609375 C 33.0625 -28.429688 31.523438 -28.367188 29.984375 -28.421875 C 28.453125 -28.484375 27.101562 -28.609375 25.9375 -28.796875 Z M 21.34375 -12.609375 C 21.46875 -11.066406 21.515625 -9.5 21.484375 -7.90625 C 21.453125 -6.3125 21.066406 -4.8125 20.328125 -3.40625 L 20.515625 -3.125 C 20.878906 -3.3125 21.1875 -3.523438 21.4375 -3.765625 C 22.113281 -5.179688 22.40625 -6.65625 22.3125 -8.1875 C 22.21875 -9.71875 22.019531 -11.25 21.71875 -12.78125 L 21.15625 -15.640625 C 21.09375 -15.578125 21.09375 -15.359375 21.15625 -14.984375 C 21.21875 -14.617188 21.21875 -14.4375 21.15625 -14.4375 Z M 21.34375 -12.609375 "/></g></g></g><g fill="#e4e2dd" fill-opacity="1"><g transform="translate(235.064851, 214.499986)"><g><path d="M 40.84375 -2.671875 C 35.632812 -3.035156 30.390625 -2.988281 25.109375 -2.53125 C 19.835938 -2.070312 14.65625 -1.132812 9.5625 0.28125 C 8.457031 0.519531 7.398438 0.273438 6.390625 -0.453125 C 5.378906 -1.191406 4.90625 -2.144531 4.96875 -3.3125 C 4.96875 -3.800781 4.984375 -4.257812 5.015625 -4.6875 C 5.046875 -5.125 5.0625 -5.554688 5.0625 -5.984375 C 5.1875 -7.753906 5.25 -9.546875 5.25 -11.359375 C 5.25 -13.171875 5.28125 -14.96875 5.34375 -16.75 C 5.09375 -18.894531 4.84375 -21.070312 4.59375 -23.28125 C 4.351562 -25.488281 4.109375 -27.664062 3.859375 -29.8125 C 3.429688 -34.164062 3.019531 -38.519531 2.625 -42.875 C 2.226562 -47.226562 1.875 -51.550781 1.5625 -55.84375 C 1.4375 -57.375 1.925781 -58.519531 3.03125 -59.28125 C 4.132812 -60.050781 5.394531 -60.316406 6.8125 -60.078125 C 7.300781 -60.015625 7.757812 -59.90625 8.1875 -59.75 C 8.613281 -59.601562 9.015625 -59.4375 9.390625 -59.25 C 9.816406 -59.1875 10.226562 -59.078125 10.625 -58.921875 C 11.019531 -58.773438 11.40625 -58.546875 11.78125 -58.234375 C 12.445312 -54.921875 13 -51.609375 13.4375 -48.296875 L 13.890625 -45.625 C 13.953125 -46.726562 13.953125 -48 13.890625 -49.4375 C 13.828125 -50.882812 13.765625 -52.007812 13.703125 -52.8125 C 13.640625 -53.851562 13.515625 -54.863281 13.328125 -55.84375 C 13.148438 -56.820312 12.816406 -57.773438 12.328125 -58.703125 C 12.265625 -58.816406 12.296875 -58.90625 12.421875 -58.96875 C 12.546875 -59.03125 12.640625 -59 12.703125 -58.875 C 13.921875 -57.28125 14.664062 -55.457031 14.9375 -53.40625 C 15.21875 -51.351562 15.484375 -49.34375 15.734375 -47.375 C 15.972656 -45.050781 16.1875 -42.722656 16.375 -40.390625 C 16.5625 -38.054688 16.742188 -35.722656 16.921875 -33.390625 C 17.296875 -28.546875 17.570312 -23.671875 17.75 -18.765625 L 18.03125 -14.078125 C 18.03125 -14.078125 18.046875 -14.078125 18.078125 -14.078125 C 18.109375 -14.078125 18.15625 -14.109375 18.21875 -14.171875 L 18.21875 -13.984375 C 18.21875 -13.859375 18.203125 -13.765625 18.171875 -13.703125 C 18.140625 -13.640625 18.125 -13.550781 18.125 -13.4375 C 20.269531 -13.988281 22.476562 -14.398438 24.75 -14.671875 C 27.019531 -14.953125 29.289062 -15.125 31.5625 -15.1875 C 32.476562 -15.1875 33.394531 -15.195312 34.3125 -15.21875 C 35.238281 -15.25 36.128906 -15.238281 36.984375 -15.1875 C 37.660156 -15.125 38.363281 -15.03125 39.09375 -14.90625 C 39.832031 -14.78125 40.476562 -14.503906 41.03125 -14.078125 C 41.519531 -13.710938 41.976562 -13.265625 42.40625 -12.734375 C 42.84375 -12.210938 43.0625 -11.617188 43.0625 -10.953125 C 43.0625 -10.703125 43.046875 -10.453125 43.015625 -10.203125 C 42.984375 -9.960938 42.9375 -9.71875 42.875 -9.46875 C 43.050781 -9.226562 43.234375 -9 43.421875 -8.78125 C 43.609375 -8.570312 43.789062 -8.3125 43.96875 -8 C 44.40625 -7.269531 44.53125 -6.472656 44.34375 -5.609375 C 44.15625 -4.753906 43.753906 -4.035156 43.140625 -3.453125 C 42.535156 -2.867188 41.769531 -2.609375 40.84375 -2.671875 Z M 3.5 -52.71875 C 3.625 -51.914062 3.710938 -51.082031 3.765625 -50.21875 C 3.828125 -49.363281 3.890625 -48.507812 3.953125 -47.65625 C 4.265625 -44.34375 4.507812 -41.046875 4.6875 -37.765625 C 4.875 -34.484375 5.09375 -31.21875 5.34375 -27.96875 L 5.34375 -33.03125 C 5.28125 -35.300781 5.234375 -37.550781 5.203125 -39.78125 C 5.171875 -42.019531 5.125 -44.273438 5.0625 -46.546875 C 5 -47.648438 4.921875 -48.9375 4.828125 -50.40625 C 4.734375 -51.882812 4.875 -53.207031 5.25 -54.375 L 5.515625 -57.5 C 5.640625 -57.800781 5.796875 -58.109375 5.984375 -58.421875 C 5.554688 -58.421875 5.09375 -58.328125 4.59375 -58.140625 C 3.925781 -57.898438 3.515625 -57.457031 3.359375 -56.8125 C 3.203125 -56.164062 3.1875 -55.472656 3.3125 -54.734375 C 3.4375 -54.003906 3.5 -53.332031 3.5 -52.71875 Z M 39.28125 1.109375 C 36.769531 0.921875 34.253906 0.8125 31.734375 0.78125 C 29.222656 0.75 26.710938 0.796875 24.203125 0.921875 C 21.742188 0.984375 19.257812 1.164062 16.75 1.46875 C 15.582031 1.53125 14.351562 1.679688 13.0625 1.921875 C 11.769531 2.171875 10.515625 2.234375 9.296875 2.109375 C 9.171875 2.109375 9.171875 2.050781 9.296875 1.9375 C 10.335938 1.445312 11.515625 1.109375 12.828125 0.921875 C 14.148438 0.734375 15.394531 0.550781 16.5625 0.375 C 17.789062 0.25 18.96875 0.109375 20.09375 -0.046875 C 21.226562 -0.203125 22.378906 -0.3125 23.546875 -0.375 C 28.828125 -0.863281 34.070312 -1.046875 39.28125 -0.921875 C 39.894531 -0.859375 40.203125 -0.488281 40.203125 0.1875 C 40.203125 0.863281 39.894531 1.171875 39.28125 1.109375 Z M 39.28125 1.109375 "/></g></g></g><g fill="#e4e2dd" fill-opacity="1"><g transform="translate(275.909178, 214.499986)"><g><path d="M 33.671875 -2.765625 C 33.304688 -2.878906 32.890625 -3.519531 32.421875 -4.6875 C 31.960938 -5.851562 31.472656 -7.296875 30.953125 -9.015625 C 30.429688 -10.734375 29.941406 -12.507812 29.484375 -14.34375 C 29.023438 -16.1875 28.609375 -17.84375 28.234375 -19.3125 C 27.867188 -20.789062 27.628906 -21.867188 27.515625 -22.546875 L 20.328125 -22.453125 C 19.648438 -19.691406 19.066406 -16.945312 18.578125 -14.21875 C 18.085938 -11.488281 17.722656 -8.710938 17.484375 -5.890625 C 17.484375 -5.335938 17.222656 -5.0625 16.703125 -5.0625 C 16.179688 -5.0625 15.953125 -5.335938 16.015625 -5.890625 C 16.253906 -8.648438 16.601562 -11.425781 17.0625 -14.21875 C 17.519531 -17.007812 18.179688 -19.753906 19.046875 -22.453125 L 18.21875 -22.453125 C 17.90625 -21.347656 17.597656 -20.007812 17.296875 -18.4375 C 16.992188 -16.875 16.703125 -15.34375 16.421875 -13.84375 C 16.148438 -12.34375 15.921875 -11.085938 15.734375 -10.078125 C 15.546875 -9.066406 15.453125 -8.5625 15.453125 -8.5625 L 14.90625 -4.421875 C 14.71875 -2.328125 14.007812 -0.820312 12.78125 0.09375 C 11.5625 1.007812 10.210938 1.375 8.734375 1.1875 C 7.265625 1.007812 6.023438 0.304688 5.015625 -0.921875 C 4.003906 -2.148438 3.648438 -3.835938 3.953125 -5.984375 C 4.328125 -8.679688 4.757812 -11.378906 5.25 -14.078125 C 5.738281 -16.773438 6.316406 -19.441406 6.984375 -22.078125 C 6.554688 -22.015625 6.128906 -21.96875 5.703125 -21.9375 C 5.273438 -21.90625 4.878906 -21.890625 4.515625 -21.890625 C 4.628906 -22.203125 4.65625 -22.476562 4.59375 -22.71875 C 3.125 -23.09375 2.050781 -23.890625 1.375 -25.109375 C 0.707031 -26.335938 0.523438 -27.703125 0.828125 -29.203125 C 1.128906 -30.710938 1.984375 -32.09375 3.390625 -33.34375 C 4.804688 -34.601562 6.894531 -35.445312 9.65625 -35.875 C 10.332031 -38.945312 11.066406 -41.96875 11.859375 -44.9375 C 12.660156 -47.914062 13.644531 -50.816406 14.8125 -53.640625 C 15.363281 -54.859375 15.972656 -56.1875 16.640625 -57.625 C 17.316406 -59.070312 18.160156 -60.332031 19.171875 -61.40625 C 20.191406 -62.476562 21.46875 -63.015625 23 -63.015625 C 23.800781 -63.078125 24.597656 -62.863281 25.390625 -62.375 C 26.191406 -61.882812 26.773438 -61.269531 27.140625 -60.53125 C 28.484375 -60.46875 29.597656 -59.992188 30.484375 -59.109375 C 31.378906 -58.222656 31.890625 -57.039062 32.015625 -55.5625 C 32.140625 -53.726562 32.289062 -51.875 32.46875 -50 C 32.65625 -48.132812 32.84375 -46.3125 33.03125 -44.53125 C 33.09375 -44.46875 33.15625 -44.4375 33.21875 -44.4375 C 33.269531 -46.03125 33.34375 -47.609375 33.4375 -49.171875 C 33.53125 -50.734375 33.671875 -52.28125 33.859375 -53.8125 C 33.859375 -54.0625 33.898438 -53.507812 33.984375 -52.15625 C 34.078125 -50.8125 34.1875 -49.082031 34.3125 -46.96875 C 34.4375 -44.851562 34.5625 -42.734375 34.6875 -40.609375 C 34.8125 -38.492188 34.960938 -36.734375 35.140625 -35.328125 C 36.921875 -35.140625 38.300781 -34.539062 39.28125 -33.53125 C 40.257812 -32.519531 40.867188 -31.351562 41.109375 -30.03125 C 41.359375 -28.71875 41.238281 -27.414062 40.75 -26.125 C 40.257812 -24.84375 39.375 -23.800781 38.09375 -23 C 38.707031 -20.300781 39.347656 -17.25 40.015625 -13.84375 C 40.691406 -10.4375 41.210938 -7.351562 41.578125 -4.59375 C 41.828125 -2.507812 41.660156 -0.929688 41.078125 0.140625 C 40.492188 1.210938 39.726562 1.804688 38.78125 1.921875 C 37.832031 2.046875 36.878906 1.707031 35.921875 0.90625 C 34.972656 0.113281 34.222656 -1.109375 33.671875 -2.765625 Z M 20.0625 -34.40625 C 20.726562 -34.53125 21.597656 -34.609375 22.671875 -34.640625 C 23.742188 -34.671875 24.585938 -34.71875 25.203125 -34.78125 C 25.085938 -35.570312 24.953125 -36.703125 24.796875 -38.171875 C 24.640625 -39.648438 24.453125 -41.234375 24.234375 -42.921875 C 24.023438 -44.609375 23.765625 -46.15625 23.453125 -47.5625 C 22.722656 -44.988281 22.082031 -42.6875 21.53125 -40.65625 C 20.976562 -38.632812 20.488281 -36.550781 20.0625 -34.40625 Z M 20.0625 -34.40625 "/></g></g></g><g fill="#e4e2dd" fill-opacity="1"><g transform="translate(316.753504, 214.499986)"><g><path d="M 39.921875 0.28125 C 39.367188 0.644531 38.757812 0.644531 38.09375 0.28125 C 36.863281 -0.269531 36.03125 -1.175781 35.59375 -2.4375 C 35.164062 -3.695312 34.832031 -4.910156 34.59375 -6.078125 L 34.046875 -9.203125 L 18.03125 -37.8125 C 17.78125 -38.113281 17.53125 -38.445312 17.28125 -38.8125 C 17.039062 -39.1875 16.800781 -39.53125 16.5625 -39.84375 C 16.625 -36.707031 16.640625 -33.578125 16.609375 -30.453125 C 16.578125 -27.328125 16.5625 -24.195312 16.5625 -21.0625 C 16.6875 -19.226562 16.765625 -17.390625 16.796875 -15.546875 C 16.828125 -13.703125 16.867188 -11.863281 16.921875 -10.03125 C 16.984375 -9.101562 17.046875 -7.976562 17.109375 -6.65625 C 17.171875 -5.34375 17.03125 -4.164062 16.6875 -3.125 C 16.351562 -2.082031 15.546875 -1.46875 14.265625 -1.28125 C 13.710938 -0.363281 12.957031 0.257812 12 0.59375 C 11.050781 0.9375 10.054688 0.953125 9.015625 0.640625 C 8.035156 0.398438 7.175781 -0.179688 6.4375 -1.109375 C 6.195312 -4.972656 6 -8.832031 5.84375 -12.6875 C 5.6875 -16.550781 5.546875 -20.414062 5.421875 -24.28125 C 5.304688 -27.414062 5.21875 -30.5625 5.15625 -33.71875 C 5.09375 -36.875 5 -40.015625 4.875 -43.140625 C 4.8125 -45.171875 4.765625 -47.195312 4.734375 -49.21875 C 4.703125 -51.238281 4.75 -53.234375 4.875 -55.203125 C 5.488281 -55.691406 6.070312 -55.96875 6.625 -56.03125 C 6.625 -56.757812 6.867188 -57.460938 7.359375 -58.140625 C 8.097656 -59.066406 8.925781 -59.515625 9.84375 -59.484375 C 10.757812 -59.453125 11.707031 -59.113281 12.6875 -58.46875 C 13.675781 -57.820312 14.566406 -57.082031 15.359375 -56.25 C 16.160156 -55.425781 16.773438 -54.738281 17.203125 -54.1875 C 18.796875 -52.101562 20.25 -49.972656 21.5625 -47.796875 C 22.882812 -45.617188 24.160156 -43.394531 25.390625 -41.125 C 26.429688 -39.34375 27.441406 -37.53125 28.421875 -35.6875 C 29.410156 -33.851562 30.363281 -31.984375 31.28125 -30.078125 C 31.40625 -29.835938 31.46875 -29.53125 31.46875 -29.15625 L 32.9375 -26.3125 C 32.6875 -28.644531 32.347656 -31.003906 31.921875 -33.390625 C 31.492188 -35.785156 31.066406 -38.148438 30.640625 -40.484375 C 30.328125 -42.140625 30.015625 -43.796875 29.703125 -45.453125 C 29.398438 -47.109375 29.003906 -48.765625 28.515625 -50.421875 C 28.273438 -51.273438 28.046875 -52.144531 27.828125 -53.03125 C 27.617188 -53.925781 27.757812 -54.832031 28.25 -55.75 C 28.675781 -56.488281 29.195312 -57.039062 29.8125 -57.40625 C 29.8125 -57.46875 29.828125 -57.5 29.859375 -57.5 C 29.890625 -57.5 29.90625 -57.53125 29.90625 -57.59375 C 30.457031 -58.632812 31.296875 -59.15625 32.421875 -59.15625 C 33.554688 -59.15625 34.523438 -58.878906 35.328125 -58.328125 C 35.515625 -58.265625 35.726562 -58.113281 35.96875 -57.875 C 36.15625 -57.007812 36.367188 -56.128906 36.609375 -55.234375 C 36.859375 -54.347656 37.109375 -53.476562 37.359375 -52.625 C 38.085938 -49.988281 38.695312 -47.273438 39.1875 -44.484375 C 39.675781 -41.691406 40.140625 -38.914062 40.578125 -36.15625 C 41.492188 -30.570312 42.226562 -24.925781 42.78125 -19.21875 C 43.332031 -13.519531 43.789062 -7.847656 44.15625 -2.203125 C 43.664062 -1.535156 43.050781 -0.953125 42.3125 -0.453125 C 41.582031 0.0351562 40.785156 0.28125 39.921875 0.28125 Z M 45.078125 -3.125 C 44.953125 -3.125 44.832031 -3.035156 44.71875 -2.859375 C 44.101562 -11.628906 43.257812 -20.382812 42.1875 -29.125 C 41.113281 -37.863281 39.625 -46.492188 37.71875 -55.015625 C 37.59375 -55.378906 37.6875 -55.71875 38 -56.03125 C 38.238281 -56.332031 38.570312 -56.46875 39 -56.4375 C 39.4375 -56.40625 39.6875 -56.144531 39.75 -55.65625 C 41.40625 -47.6875 42.707031 -39.632812 43.65625 -31.5 C 44.601562 -23.375 45.046875 -15.234375 44.984375 -7.078125 C 45.046875 -6.773438 45.09375 -6.207031 45.125 -5.375 C 45.15625 -4.550781 45.140625 -3.800781 45.078125 -3.125 Z M 4.78125 -9.84375 C 4.539062 -13.09375 4.359375 -16.476562 4.234375 -20 C 4.109375 -23.53125 3.984375 -26.953125 3.859375 -30.265625 C 3.742188 -33.515625 3.65625 -36.796875 3.59375 -40.109375 C 3.53125 -43.421875 3.46875 -46.734375 3.40625 -50.046875 C 3.34375 -50.847656 3.375 -51.660156 3.5 -52.484375 C 3.625 -53.316406 3.835938 -54.097656 4.140625 -54.828125 C 4.078125 -53.359375 4.0625 -51.882812 4.09375 -50.40625 C 4.125 -48.9375 4.171875 -47.46875 4.234375 -46 C 4.296875 -42.8125 4.367188 -39.617188 4.453125 -36.421875 C 4.546875 -33.234375 4.625 -30.015625 4.6875 -26.765625 L 5.515625 -6.078125 C 5.515625 -6.078125 5.4375 -6.210938 5.28125 -6.484375 C 5.132812 -6.765625 4.96875 -7.882812 4.78125 -9.84375 Z M 15.09375 -14.359375 L 14.8125 -14.078125 C 14.8125 -14.078125 14.796875 -14.078125 14.765625 -14.078125 C 14.734375 -14.078125 14.6875 -14.046875 14.625 -13.984375 L 14.53125 -8.46875 C 14.53125 -7.726562 14.664062 -6.851562 14.9375 -5.84375 C 15.21875 -4.832031 15.207031 -3.742188 14.90625 -2.578125 C 15.519531 -3.617188 15.765625 -4.660156 15.640625 -5.703125 C 15.578125 -6.554688 15.53125 -7.441406 15.5 -8.359375 C 15.46875 -9.285156 15.390625 -10.207031 15.265625 -11.125 C 15.265625 -11.675781 15.25 -12.210938 15.21875 -12.734375 C 15.195312 -13.265625 15.15625 -13.804688 15.09375 -14.359375 Z M 15.09375 -14.359375 "/></g></g></g></svg>